<?xml version="1.0" encoding="UTF-8"?>
<svg xmlns="http://www.w3.org/2000/svg"
     viewBox="0 0 128 128"
     role="img" aria-labelledby="title">
  <title id="title">Firelighter-CMS</title>

  <defs>
    <linearGradient id="flame" x1="0" x2="1" y1="0" y2="1">
      <stop offset="0%" stop-color="#ffffff" stop-opacity="0.9"/>
      <stop offset="40%" stop-color="#b3e0ff" stop-opacity="1"/>
      <stop offset="100%" stop-color="#80c0ff" stop-opacity="1"/>
    </linearGradient>

    <radialGradient id="shine" cx="60%" cy="25%" r="70%">
      <stop offset="0%" stop-color="#ffffff" stop-opacity="0.25"/>
      <stop offset="100%" stop-color="#000000" stop-opacity="0"/>
    </radialGradient>

    <filter id="shadow" x="-30%" y="-30%" width="160%" height="160%">
      <feDropShadow dx="0" dy="6" stdDeviation="8" flood-color="#000000" flood-opacity="0.25"/>
    </filter>
  </defs>

  <rect x="0" y="0" width="128" height="128" rx="24" fill="#0b1220"/>

  <g transform="translate(28,12)" filter="url(#shadow)">
    <path d="M32 0
             C42 18 56 30 56 50
             C56 72 36 84 36 108
             C20 86 12 60 20 42
             C16 50 12 44 14 32
             C18 18 26 6 32 0 Z"
          fill="url(#flame)"/>
    <path d="M32 10
             C36 22 44 30 44 44
             C44 58 34 66 34 80
             C28 66 28 52 30 44
             C28 48 26 40 28 32
             C30 20 32 14 32 10 Z"
          fill="url(#shine)"/>
  </g>

  <ellipse cx="64" cy="110" rx="28" ry="8" fill="#80c0ff" opacity="0.25"/>

</svg>
