<?xml version="1.0" encoding="UTF-8" standalone="no"?>
<svg
   width="512.0px"
   height="512.0px"
   viewBox="0 0 512.0 512.0"
   version="1.1"
   id="SVGRoot"
   sodipodi:docname="logo.svg"
   inkscape:version="1.1.2 (0a00cf5339, 2022-02-04)"
   inkscape:export-filename="/home/ortwin/Dev/web-apps/apps/random-spa/public/logo-192.png"
   inkscape:export-xdpi="36"
   inkscape:export-ydpi="36"
   xmlns:inkscape="http://www.inkscape.org/namespaces/inkscape"
   xmlns:sodipodi="http://sodipodi.sourceforge.net/DTD/sodipodi-0.dtd"
   xmlns="http://www.w3.org/2000/svg"
   xmlns:svg="http://www.w3.org/2000/svg">
  <sodipodi:namedview
     id="namedview261"
     pagecolor="#202020"
     bordercolor="#000000"
     borderopacity="0.25"
     showgrid="true"
     showguides="false"
     inkscape:pageshadow="0"
     inkscape:pageopacity="0"
     inkscape:pagecheckerboard="0"
     inkscape:zoom="1.5917969"
     inkscape:cx="256"
     inkscape:cy="241.23681"
     inkscape:window-width="1920"
     inkscape:window-height="1052"
     inkscape:window-x="0"
     inkscape:window-y="0"
     inkscape:window-maximized="1"
     inkscape:current-layer="layer1" />
  <defs
     id="defs256" />
  <g
     id="layer1">
    <path
       style="fill:#b3b3b3;stroke-width:0.605763"
       d="m 225.12129,493.57042 c -0.83291,-0.11775 -3.83145,-0.52494 -6.66339,-0.90497 -16.14755,-2.16683 -32.80114,-9.80233 -43.1313,-19.77524 -3.86901,-3.73523 -8.85412,-10.1499 -8.3079,-10.69035 0.13878,-0.13727 3.52334,-2.17666 7.52138,-4.53196 l 7.26916,-4.28241 1.15798,1.65476 c 4.737,6.76927 15.20821,13.83286 25.64625,17.30026 10.10233,3.35588 16.32216,4.23252 27.41157,3.8635 9.94538,-0.33097 14.54451,-1.26113 21.54657,-4.35778 1.89225,-0.83685 3.53242,-1.52154 3.64484,-1.52154 0.11239,0 2.15979,3.31598 4.54975,7.36884 5.03774,8.54293 5.2258,7.79519 -2.73219,10.86412 -6.36551,2.45478 -12.12494,3.89849 -18.83118,4.72028 -5.07474,0.62191 -15.6085,0.78336 -19.08154,0.29249 z m 48.4206,-96.30826 c -51.45246,-35.85319 -93.67468,-65.30443 -93.82713,-65.4472 -0.15246,-0.14274 34.3266,-34.86421 76.62017,-77.15873 72.02635,-72.02804 76.95962,-76.83252 77.88045,-75.84705 0.54069,0.57868 30.09374,42.85376 65.67342,93.94463 l 64.69034,92.89251 -48.3989,48.40172 c -26.61938,26.62097 -48.55404,48.40173 -48.74366,48.40173 -0.18961,0 -42.44222,-29.33442 -93.89469,-65.18761 z m 130.12626,4.46169 c 20.74081,-20.73881 37.71055,-37.89187 37.71055,-38.1179 0,-0.4486 -108.70337,-156.62058 -109.86301,-157.83801 -0.55473,-0.58238 -14.38868,12.93628 -62.79081,61.35967 -48.5321,48.55341 -61.88105,62.22695 -61.1707,62.65804 0.49976,0.3033 36.07317,25.08956 79.05207,55.08056 42.97889,29.99103 78.41521,54.5371 78.7474,54.54684 0.33217,0.009 17.57371,-16.95039 38.3145,-37.6892 z m -166.73446,52.7517 c -15.76091,-0.95131 -31.57121,-6.38017 -45.73512,-15.70428 -7.35782,-4.84364 -19.55965,-16.94907 -24.51698,-24.32329 -1.95794,-2.91252 -3.4441,-5.3914 -3.30256,-5.5086 0.14151,-0.11722 2.98324,-1.79886 6.31495,-3.73698 3.3317,-1.93811 6.62859,-3.89247 7.32643,-4.34299 1.19167,-0.76935 1.44207,-0.55857 4.11929,3.46761 3.76845,5.66721 11.05207,13.2576 16.91022,17.62243 13.49087,10.05186 28.61464,15.05828 45.48927,15.05828 12.81693,0 22.4627,-2.17932 33.44536,-7.55643 5.13719,-2.51517 5.19107,-2.52669 5.98142,-1.27683 0.43863,0.69367 2.44584,4.05787 4.46045,7.47602 l 3.66294,6.2148 -1.33292,0.87221 c -2.70521,1.77021 -11.93211,5.81483 -17.15459,7.51975 -11.11404,3.62823 -22.71444,5.00017 -35.66816,4.2183 z M 153.56652,300.86247 c -10.1693,-10.24495 -19.9074,-20.35295 -21.64019,-22.46223 -20.31008,-24.72244 -27.87787,-58.20489 -20.08137,-88.84672 0.9325,-3.66487 1.8643,-7.07866 2.0707,-7.58619 0.24919,-0.61282 -5.92863,-9.26141 -18.390023,-25.74494 L 76.760349,131.40027 104.75139,103.37285 c 15.39507,-15.415102 28.32312,-27.954388 28.72896,-27.865105 0.40588,0.08932 11.6521,8.412614 24.99163,18.49631 l 24.25368,18.333985 5.31418,-1.52885 c 24.02333,-6.91131 50.41379,-4.48194 72.87936,6.70891 12.44485,6.19921 16.83385,9.79384 39.6196,32.44873 l 21.20171,21.07996 -74.20505,74.22145 c -40.81279,40.8218 -74.49177,74.22145 -74.84217,74.22145 -0.35042,0 -8.95746,-8.38225 -19.12677,-18.62722 z m 81.54764,-67.99467 61.7834,-61.78563 -12.41481,-12.47015 c -18.93208,-19.01645 -26.82203,-24.583 -42.00021,-29.63205 -10.20236,-3.39385 -15.23924,-4.19326 -26.44768,-4.19751 -22.41083,-0.009 -39.63669,6.73224 -57.03713,22.31947 -22.97028,20.57666 -33.44233,43.20946 -32.39497,70.01381 0.50786,12.997 3.08716,23.12878 8.78726,34.51725 4.6283,9.24703 8.23336,13.73322 23.00972,28.63355 7.84695,7.91278 14.41654,14.38687 14.5991,14.38687 0.18257,0 28.13447,-27.80352 62.11532,-61.78561 z M 127.04731,155.94608 c 4.20822,-6.23161 17.42238,-20.29395 24.47377,-26.04474 2.33219,-1.90199 6.21992,-4.7702 8.63939,-6.37377 2.41947,-1.60355 4.32762,-2.96444 4.24034,-3.02418 -0.0872,-0.0598 -6.79396,-5.10208 -14.90369,-11.20517 l -14.745,-11.096529 -17.21473,17.205059 c -9.46807,9.46277 -17.08806,17.53621 -16.93328,17.94097 0.62942,1.64601 21.86422,29.1603 22.20116,28.76643 0.20033,-0.23416 2.10922,-3.00979 4.24204,-6.16807 z m 179.41396,-47.80794 c -2.24121,-3.93321 -9.45354,-12.291262 -13.87348,-16.077377 -9.65499,-8.270474 -19.97691,-13.51776 -32.938,-16.744488 -5.01047,-1.24737 -7.20412,-1.43267 -16.96137,-1.43267 -9.72888,0 -11.96544,0.187795 -16.96135,1.424221 -6.45301,1.597048 -13.2196,4.123065 -18.12474,6.766116 -1.80596,0.973094 -3.35634,1.696484 -3.44532,1.607509 -1.10005,-1.100066 -8.56139,-14.741149 -8.29701,-15.168925 0.55364,-0.895815 12.04777,-6.142605 17.25752,-7.877623 10.6049,-3.53181 16.16278,-4.349258 29.5709,-4.349258 10.77618,0 13.24665,0.185528 18.68399,1.403124 25.09049,5.618611 45.74872,19.450963 58.89821,39.437024 l 2.95699,4.494377 -7.10407,4.20022 c -3.90723,2.31013 -7.37665,4.30842 -7.70983,4.44064 -0.33317,0.13224 -1.21176,-0.82306 -1.95244,-2.12289 z m -2.59078,-51.462635 c 0,-1.17693 -7.46766,-8.657343 -11.11571,-11.134681 -5.48499,-3.724765 -13.1059,-7.044663 -20.89601,-9.102911 -6.68959,-1.767476 -7.66385,-1.865841 -18.56949,-1.875017 -12.68077,-0.0106 -17.16612,0.780989 -24.57703,4.337889 l -3.5929,1.724429 -4.23936,-7.18289 c -2.33165,-3.950588 -4.23938,-7.440733 -4.23938,-7.755864 0,-1.484016 11.1596,-5.671346 19.42012,-7.28688 27.22004,-5.3235 58.11205,2.718861 75.22915,19.585007 3.29011,3.241888 8.62236,10.083843 8.16197,10.472832 -0.54344,0.459133 -13.92816,8.232101 -14.65686,8.511715 -0.50847,0.195131 -0.9245,0.0629 -0.9245,-0.293629 z"
       id="path137" />
  </g>
</svg>
