<?xml version="1.0" encoding="UTF-8" standalone="no"?>
<svg
   width="512.0px"
   height="512.0px"
   viewBox="0 0 512.0 512.0"
   version="1.1"
   id="SVGRoot"
   sodipodi:docname="logo-fill.svg"
   inkscape:version="1.1.2 (0a00cf5339, 2022-02-04)"
   inkscape:export-filename="/home/ortwin/Dev/web-apps/apps/random-spa/public/logo-192.png"
   inkscape:export-xdpi="36"
   inkscape:export-ydpi="36"
   xmlns:inkscape="http://www.inkscape.org/namespaces/inkscape"
   xmlns:sodipodi="http://sodipodi.sourceforge.net/DTD/sodipodi-0.dtd"
   xmlns="http://www.w3.org/2000/svg"
   xmlns:svg="http://www.w3.org/2000/svg">
  <sodipodi:namedview
     id="namedview261"
     pagecolor="#202020"
     bordercolor="#000000"
     borderopacity="0.25"
     showgrid="true"
     showguides="false"
     inkscape:pageshadow="0"
     inkscape:pageopacity="0"
     inkscape:pagecheckerboard="0"
     inkscape:zoom="1.1255704"
     inkscape:cx="235.8804"
     inkscape:cy="272.7506"
     inkscape:window-width="1920"
     inkscape:window-height="1052"
     inkscape:window-x="0"
     inkscape:window-y="0"
     inkscape:window-maximized="1"
     inkscape:current-layer="layer1" />
  <defs
     id="defs256" />
  <g
     id="layer1">
    <circle
       style="fill:#242424;fill-opacity:1;stroke-width:7.6613"
       id="path1471"
       cx="256.32864"
       cy="257.66022"
       r="253.04741" />
    <path
       style="fill:#b3b3b3;stroke-width:0.593007"
       d="m 229.15357,488.05064 c -0.81539,-0.11519 -3.75077,-0.51391 -6.52308,-0.88592 -15.80749,-2.12121 -32.11039,-9.5959 -42.22302,-19.35881 -3.78754,-3.65658 -8.66767,-9.93614 -8.13295,-10.46522 0.13585,-0.13438 3.44915,-2.13082 7.363,-4.43653 l 7.11608,-4.19222 1.13359,1.61992 c 4.63725,6.6267 14.88795,13.54156 25.10618,16.93592 9.88961,3.28523 15.97844,4.1434 26.83433,3.78215 9.73595,-0.324 14.23824,-1.23459 21.09283,-4.26601 1.85242,-0.81923 3.45805,-1.48949 3.56809,-1.48949 0.11006,0 2.11432,3.24613 4.45395,7.21366 4.93165,8.36302 5.11574,7.63104 -2.67465,10.63535 -6.23147,2.40308 -11.86963,3.81636 -18.43464,4.62087 -4.96786,0.6088 -15.27981,0.76686 -18.67971,0.28633 z m 47.40094,-94.28019 c -50.36896,-35.09816 -91.70204,-63.92922 -91.8513,-64.06898 -0.14923,-0.13973 33.60376,-34.13004 75.00669,-75.53389 70.5096,-70.51126 75.33899,-75.21456 76.24041,-74.24984 0.52932,0.56648 29.46003,41.95133 64.29044,91.96631 l 63.32809,90.93634 -47.37969,47.38246 c -26.05884,26.06038 -47.53157,47.38248 -47.71721,47.38248 -0.18562,0 -41.54846,-28.71669 -91.91743,-63.81488 z m 127.38602,4.36776 c 20.30406,-20.30211 36.91644,-37.09393 36.91644,-37.31521 0,-0.43916 -106.41428,-153.32242 -107.54948,-154.51422 -0.54305,-0.57011 -14.0857,12.66387 -61.46856,60.06755 -47.51009,47.53096 -60.57793,60.91656 -59.88255,61.33856 0.48924,0.29693 35.31355,24.56122 77.38739,53.92066 42.07382,29.35947 76.76391,53.38865 77.08909,53.39818 0.32518,0.009 17.20365,-16.59344 37.50767,-36.89552 z m -163.22332,51.64083 c -15.42899,-0.93128 -30.90637,-6.24581 -44.772,-15.37358 -7.20288,-4.74163 -19.14777,-16.59215 -24.00071,-23.81107 -1.91671,-2.85119 -3.37156,-5.27787 -3.23301,-5.3926 0.13854,-0.11483 2.92043,-1.76098 6.18197,-3.6583 3.26155,-1.8973 6.489,-3.8105 7.17216,-4.25153 1.16655,-0.75317 1.41169,-0.54682 4.03254,3.39459 3.68908,5.54787 10.81934,12.97841 16.55411,17.25133 13.20677,9.84019 28.01208,14.74118 44.53137,14.74118 12.54701,0 21.98966,-2.13344 32.74105,-7.39732 5.02899,-2.4622 5.08174,-2.47346 5.85544,-1.24992 0.4294,0.67906 2.39432,3.97242 4.36652,7.31858 l 3.58581,6.08393 -1.30484,0.85385 c -2.64826,1.73292 -11.68084,5.69237 -16.79335,7.36138 -10.88,3.55185 -22.23612,4.89489 -34.91706,4.12948 z M 159.10562,299.4008 c -9.95516,-10.02923 -19.48817,-19.92437 -21.18449,-21.98923 -19.88238,-24.20182 -27.29081,-56.97919 -19.65847,-86.97575 0.91284,-3.5877 1.82505,-6.9296 2.02707,-7.42645 0.24396,-0.59991 -5.80378,-9.06637 -18.00275,-25.20279 l -18.370121,-24.2994 27.401591,-27.43722 c 15.07087,-15.090475 27.72668,-27.365712 28.12398,-27.278304 0.39733,0.08744 11.40672,8.235457 24.46535,18.106804 l 23.74295,17.94791 5.20226,-1.49665 c 23.51745,-6.7658 49.35215,-4.38757 71.34464,6.56763 12.18279,6.06866 16.47937,9.58759 38.78528,31.7654 l 20.75524,20.63605 -72.64242,72.65848 c -39.95333,39.96215 -72.92309,72.65848 -73.26613,72.65848 -0.34303,0 -8.76883,-8.20574 -18.72398,-18.23496 z m 79.83039,-66.56282 60.48235,-60.48454 -12.15339,-12.20754 c -18.53339,-18.616 -26.2572,-24.06535 -41.11574,-29.00807 -9.98752,-3.32239 -14.91834,-4.10494 -25.89074,-4.1091 -21.93891,-0.009 -38.80202,6.59046 -55.83604,21.84946 -22.48656,20.14333 -32.73808,42.29953 -31.71278,68.53944 0.49716,12.72329 3.02213,22.64172 8.60222,33.79036 4.53082,9.05231 8.05999,13.44402 22.52517,28.03059 7.6817,7.74615 14.11295,14.0839 14.29168,14.0839 0.17871,0 27.54201,-27.21803 60.80727,-60.4845 z m -105.79115,-75.3019 c 4.1196,-6.10037 17.05549,-19.86659 23.9584,-25.49627 2.28307,-1.86194 6.08892,-4.66975 8.45744,-6.23956 2.36853,-1.56977 4.23651,-2.90201 4.15105,-2.96049 -0.0854,-0.0585 -6.65088,-4.99463 -14.58984,-10.96919 l -14.43449,-10.86286 -16.85222,16.84272 c -9.26869,9.26351 -16.72821,17.16694 -16.57669,17.56319 0.61616,1.61136 21.4038,28.54622 21.73364,28.16066 0.19611,-0.22922 2.06481,-2.94643 4.15271,-6.0382 z m 175.63581,-46.80117 c -2.19402,-3.85039 -9.25448,-12.032434 -13.58133,-15.738819 -9.45166,-8.096311 -19.55623,-13.233105 -32.24438,-16.391872 -4.90495,-1.221105 -7.05242,-1.4025 -16.6042,-1.4025 -9.52401,0 -11.71347,0.183842 -16.60417,1.394223 -6.31711,1.563426 -12.94121,4.036244 -17.74306,6.623644 -1.76792,0.952597 -3.28567,1.660739 -3.37276,1.573637 -1.0769,-1.0769 -8.38112,-14.430721 -8.12231,-14.84948 0.542,-0.876964 11.79408,-6.013268 16.89412,-7.711743 10.38158,-3.457438 15.8224,-4.257661 28.94818,-4.257661 10.54924,0 12.96771,0.181614 18.29056,1.373576 24.56212,5.500282 44.7853,19.041344 57.6579,38.606539 l 2.89471,4.399736 -6.95445,4.11177 c -3.82497,2.2615 -7.22132,4.2177 -7.54749,4.34714 -0.32615,0.12947 -1.18623,-0.80574 -1.91132,-2.07819 z m -2.53622,-50.378931 c 0,-1.152139 -7.31041,-8.475024 -10.88164,-10.900198 -5.36949,-3.646328 -12.82992,-6.896314 -20.45598,-8.91122 -6.54871,-1.730254 -7.50246,-1.826548 -18.17842,-1.835532 -12.41376,-0.01039 -16.80465,0.764545 -24.05951,4.246542 l -3.51724,1.688114 -4.15008,-7.03163 c -2.28255,-3.867394 -4.1501,-7.284042 -4.1501,-7.59254 0,-1.452763 10.92461,-5.551915 19.01117,-7.133429 26.64683,-5.211396 56.8883,2.661607 73.64493,19.172579 3.22084,3.17362 8.44079,9.871496 7.99011,10.252293 -0.53199,0.449468 -13.63485,8.058742 -14.3482,8.332475 -0.4978,0.191015 -0.90504,0.06162 -0.90504,-0.287454 z"
       id="path137" />
    <path
       style="fill:#242424;stroke-width:0.888438"
       d="m 359.3632,429.61307 c -3.65923,-2.55578 -38.13639,-26.54101 -76.61591,-53.30052 l -69.96276,-48.65364 1.71265,-2.35577 c 3.89438,-5.35678 118.25212,-118.61722 118.95734,-117.81592 1.30006,1.47717 45.09413,64.25638 87.60671,125.58506 l 19.33569,27.89367 -34.07061,34.13269 c -18.73883,18.77298 -35.47446,35.26413 -37.19029,36.64699 l -3.11968,2.51432 z"
       id="path866" />
    <path
       style="fill:#b3b3b3;stroke-width:0.888438;fill-opacity:1;stroke:none"
       d="m 359.35273,429.64939 c -3.65347,-2.54493 -38.13077,-26.52707 -76.61623,-53.29365 l -69.97355,-48.66653 1.72344,-2.37092 c 3.96153,-5.44986 118.26309,-118.63389 118.99448,-117.83107 1.07891,1.18426 69.61517,99.48054 97.78138,140.24031 l 9.14263,13.23046 -34.07459,34.13667 c -18.74102,18.77516 -35.48315,35.27183 -37.20473,36.65927 l -3.13015,2.52259 z"
       id="path905" />
    <path
       style="fill:#b3b3b3;fill-opacity:1;stroke-width:0.888438"
       d="m 165.56923,280.08022 c -14.8161,-14.96479 -19.35344,-20.57014 -23.7797,-29.377 -9.7733,-19.44581 -11.33166,-41.20605 -4.4337,-61.91005 8.6716,-26.02751 35.78796,-52.0653 61.01667,-58.58968 14.53284,-3.75834 33.62616,-3.25964 46.73345,1.22062 15.56314,5.31971 23.5975,10.9771 42.29598,29.78268 l 11.09757,11.16114 -59.95922,59.96416 c -32.97757,32.98028 -60.16558,59.96415 -60.41781,59.96415 -0.25222,0 -5.90118,-5.49721 -12.55324,-12.21602 z"
       id="path6049" />
    <path
       style="fill:#b3b3b3;fill-opacity:1;stroke-width:0.888438"
       d="m 125.82047,159.02999 c -1.58516,-1.97252 -6.25182,-8.02017 -10.37038,-13.43923 l -7.48827,-9.85285 1.70853,-2.34662 c 0.9397,-1.29064 8.31377,-8.92031 16.38684,-16.95481 l 14.6783,-14.60819 3.01253,2.17005 c 10.15558,7.3155 24.55077,18.23542 24.57843,18.64474 0.018,0.26554 -3.21289,2.85662 -7.17963,5.75795 -7.70288,5.634 -21.86114,19.92876 -27.69711,27.96413 -1.95191,2.68753 -3.81852,5.1935 -4.14803,5.56882 -0.32951,0.37532 -1.89605,-0.93147 -3.48121,-2.90399 z"
       id="path6088" />
  </g>
</svg>
